<?xml version="1.0" encoding="utf-8"?>
<!-- Generator: Adobe Illustrator 24.3.0, SVG Export Plug-In . SVG Version: 6.00 Build 0)  -->
<svg version="1.1" baseProfile="basic" id="Layer_1"
	 xmlns="http://www.w3.org/2000/svg" xmlns:xlink="http://www.w3.org/1999/xlink" x="0px" y="0px" viewBox="0 0 300 120"
	 xml:space="preserve">
<style type="text/css">
	.st0{fill:#3D3D3D;}
	.st1{fill:#0083B0;}
</style>
<g>
	<g>
		<path class="st0" d="M36.28,89.52c-3.53,0-6.93,0-10.54,0c4.5-7.89,8.92-15.64,13.33-23.36c-0.26-0.39-0.59-0.24-0.87-0.24
			c-5.17,0-10.35,0.02-15.52,0.02c-1.64,0-3.15,0.45-4.7,1.16c1.47-2.58,2.95-5.15,4.42-7.73c0.28-0.49,0.74-0.28,1.11-0.28
			c5.32-0.01,10.65-0.01,15.97-0.01c8.96,0,17.92,0.01,26.88-0.02c0.77,0,1.2,0.22,1.57,0.9c1.32,2.42,2.71,4.8,4.03,7.31
			c-2.24-1.55-4.76-1.37-7.26-1.36c-5.51,0.01-11.02,0.02-16.53-0.01c-0.78,0-1.2,0.23-1.58,0.91c-3.5,6.19-7.04,12.36-10.57,18.53
			C34.83,87.39,34.84,87.61,36.28,89.52z"/>
		<path class="st0" d="M44.98,30.41c4.4,7.71,8.67,15.2,13.06,22.87c-2.62,0-5.04-0.01-7.46,0.01c-0.54,0-0.67-0.42-0.86-0.76
			c-1.42-2.47-2.83-4.94-4.24-7.4c-0.13-0.22-0.27-0.44-0.5-0.82c-0.69,1.19-1.32,2.27-1.95,3.35c-0.95,1.66-1.89,3.32-2.84,4.97
			c-0.16,0.29-0.27,0.65-0.7,0.65c-2.46,0-4.91,0-7.57,0C36.31,45.61,40.58,38.11,44.98,30.41z"/>
		<path class="st0" d="M46.72,78.24c1.22-2.14,2.34-4.08,3.43-6.04c0.21-0.37,0.44-0.52,0.88-0.52c5.66,0.02,11.31,0.02,16.97-0.01
			c0.6,0,0.75,0.36,0.97,0.74c2.3,4.03,4.63,8.04,6.9,12.09c1.07,1.91,2.27,3.67,4.09,5.06c-2.87,0-5.74-0.01-8.6,0.01
			c-0.59,0-0.73-0.44-0.95-0.82c-1.82-3.18-3.66-6.36-5.44-9.56c-0.39-0.71-0.82-0.99-1.65-0.98c-5.06,0.04-10.12,0.02-15.17,0.02
			C47.73,78.24,47.32,78.24,46.72,78.24z"/>
		<path class="st0" d="M29.47,71.4c-1.07,1.89-2.04,3.6-3.02,5.31c-2.3,4.03-4.61,8.05-6.9,12.09c-0.25,0.44-0.46,0.79-1.08,0.78
			c-2.81-0.03-5.61-0.01-8.37-0.01c4.97-4.9,7.25-11.49,10.9-17.2c0.47-0.74,0.92-1.01,1.77-0.99C24.93,71.44,27.09,71.4,29.47,71.4
			z"/>
	</g>
	<g>
		<path class="st0" d="M118.44,76.13h-13.88l-2.42,7.85H91.33l15.4-42h9.52l15.52,42H120.9L118.44,76.13z M106.99,68.31h9.03
			l-4.53-14.57L106.99,68.31z"/>
		<path class="st0" d="M164.34,49.79h-12.61v34.18h-10.13V49.79h-12.38v-7.82h35.11V49.79z"/>
	</g>
	<g>
		<path class="st1" d="M179.54,78.15h19.07v5.83h-26.37v-42h7.3V78.15z"/>
		<path class="st1" d="M203.54,44.66c0-1.08,0.34-1.97,1.02-2.68s1.66-1.07,2.93-1.07c1.27,0,2.25,0.36,2.94,1.07
			s1.04,1.61,1.04,2.68c0,1.06-0.35,1.94-1.04,2.64s-1.67,1.05-2.94,1.05c-1.27,0-2.25-0.35-2.93-1.05S203.54,45.71,203.54,44.66z
			 M210.98,83.97h-7.01V52.76h7.01V83.97z"/>
		<path class="st1" d="M225.12,52.76l0.2,3.61c2.31-2.79,5.34-4.18,9.09-4.18c6.5,0,9.81,3.72,9.92,11.16v20.63h-7.01V63.75
			c0-1.98-0.43-3.45-1.28-4.4s-2.25-1.43-4.2-1.43c-2.83,0-4.93,1.28-6.32,3.84v22.21h-7.01V52.76H225.12z"/>
		<path class="st1" d="M261.61,70.59l-3.12,3.2v10.18h-7.01V39.67h7.01v25.56l2.19-2.74l8.63-9.72h8.42l-11.6,13.01l12.84,18.2
			h-8.11L261.61,70.59z"/>
		<path class="st1" d="M286.67,76.59c1.31,0,2.32,0.37,3.03,1.11c0.71,0.74,1.07,1.67,1.07,2.78c0,1.1-0.36,2-1.07,2.73
			c-0.71,0.72-1.72,1.08-3.03,1.08c-1.25,0-2.24-0.36-2.97-1.07c-0.73-0.71-1.1-1.62-1.1-2.74s0.36-2.04,1.07-2.78
			C284.39,76.96,285.39,76.59,286.67,76.59z"/>
	</g>
</g>
</svg>
